<?xml version="1.0" encoding="iso-8859-1"?>
<!-- Generator: Adobe Illustrator 19.0.0, SVG Export Plug-In . SVG Version: 6.00 Build 0)  -->
<svg version="1.1" id="Layer_1" xmlns="http://www.w3.org/2000/svg" xmlns:xlink="http://www.w3.org/1999/xlink" x="0px" y="0px"
	 viewBox="0 0 508 508" style="enable-background:new 0 0 508 508;" xml:space="preserve">
<path style="fill:#F4EFEF;" d="M326.4,163.8h146.8c17.2,0,28.4-18.8,28.4-34.4V81.8c0-16.4-11.6-25.6-28.4-25.6H38
	C22.4,56.2,6,65,6,81.8v47.6c0,16.8,15.6,34.4,32,34.4h143.2c19.6-20,44.8-26,72.4-26S306.8,143.8,326.4,163.8z"/>
<path style="fill:#CDEEF9;" d="M334,91.8h-8H118c-8,0-12,2-12,9.6v12.4c0,8,4,14,12,14h216.4c8,0,12-5.2,12-12.4v-14
	C346,93.8,342,91.8,334,91.8z"/>
<path style="fill:#E8E3E3;" d="M74.8,99.8c-1.2-9.2-11.2-11.2-11.2-11.2c-2-0.8-4-0.8-5.6-0.8c-9.6,0-17.6,8-17.6,17.6
	S48.4,123,58,123s17.6-8,17.6-17.6c0-1.2-0.4-2-0.4-3.2C74.8,101.4,74.8,100.6,74.8,99.8z"/>
<g>
	<path style="fill:#61C2AB;" d="M462,115.4c3.2,0,6-1.2,8-3.6c1.6-2,2.4-4,2-6.4c-0.8-8.8-10-10.4-10.4-10.4c-5.2,0-9.6,4.4-9.6,10
		C452,111,456.4,115.4,462,115.4z"/>
	<path style="fill:#61C2AB;" d="M422,115.4c5.2,0,9.6-4.4,10-10.4c0.4-2.8-0.4-5.2-1.6-6.8c-2.4-2.8-7.2-3.2-8.4-3.2
		c-6,0-10.4,4.4-10.4,10C412,111,416.4,115.4,422,115.4z"/>
	<path style="fill:#61C2AB;" d="M382,115.4c3.2,0,6-1.6,8-3.6c1.2-1.2,2.4-3.2,2-6c-1.2-9.2-6.4-10.4-9.2-10.4c-0.4,0-0.8,0-0.8,0
		c-6,0-10.4,4.4-10.4,10C372,111,376.4,115.4,382,115.4z"/>
</g>
<path style="fill:#F4EFEF;" d="M142,275.8h-24c-9.6,0-16-8.4-16-18.4V245c0-9.6,5.6-13.2,16-13.2h24c2-12,5.6-24,10.8-32H38
	c-15.6,0-32,8.4-32,25.6V273c0,16.8,15.6,34.4,32,34.4h117.2c-5.6-12-10-20.8-12.4-32C142.4,275.8,142.4,275.8,142,275.8z"/>
<path style="fill:#CC9999;" d="M142,269.8L142,269.8L142,269.8L142,269.8z"/>
<path style="fill:#F4EFEF;" d="M352.8,307.8h120.4c17.2,0,28.4-18.8,28.4-34.4v-47.6c0-16.4-11.6-25.6-28.4-25.6h-118
	c8,12,12.4,33.2,12.4,51.6C368,271.8,362.4,287.8,352.8,307.8z"/>
<path style="fill:#CDEEF9;" d="M141.2,235.8h-23.6c-8,0-12,2-12,9.2v12.4c0,8,4.4,14.4,12,14.4h24v-2c-1.2-6.4-2-12.4-2-19.2
	C140,245,140.4,239.8,141.2,235.8z"/>
<path style="fill:#E8E3E3;" d="M63.2,232.2c-1.6-0.4-3.6-0.8-5.2-0.8c-9.6,0-17.6,8-17.6,17.6s8,17.6,17.6,17.6s17.6-8,17.6-17.6
	c0-1.6-0.4-3.2-0.8-5.2C72.8,236.6,63.2,232.2,63.2,232.2z"/>
<g>
	<path style="fill:#61C2AB;" d="M462,259.4c2.8,0,5.6-1.2,7.6-3.2c1.6-2,2.4-4.4,2.4-6.8c-0.8-9.2-10-10.4-10.4-10.4
		c-5.6,0-10,4.4-10,10S456.4,259.4,462,259.4z"/>
	<path style="fill:#61C2AB;" d="M422,259.4c3.2,0,6-1.2,8-3.6c1.6-2,2.4-4,2-6.4c-1.2-9.6-8-10.4-10-10.4c-6,0-10.4,4.4-10.4,10
		C412,255,416.4,259.4,422,259.4z"/>
	<path style="fill:#61C2AB;" d="M382,259.4c2.8,0,5.6-1.2,7.6-3.2c1.6-2,2.8-4.4,2.4-6.8c-0.8-9.6-7.6-10.4-10-10.4
		c-6,0-10.4,4.4-10.4,10C372,255,376.4,259.4,382,259.4z"/>
</g>
<path style="fill:#F4EFEF;" d="M473.6,343.8H322h-1.6c-18.8,12-41.6,21.6-66.4,21.6s-47.6-9.6-66.4-21.6H186H38
	c-15.6,0-32,8.4-32,25.6V417c0,16.4,16,34.8,32,34.8h435.2c17.2,0,28.4-18.8,28.4-34.8v-47.6C502,353,490.4,343.8,473.6,343.8z"/>
<path style="fill:#CDEEF9;" d="M106,389v12.4c0,8,4.4,14.4,12,14.4h216.4c8,0,12-6,12-13.6V389c0-7.6-4-9.2-12-9.2h-8h-208
	C110,379.8,106,381.4,106,389z"/>
<path style="fill:#E8E3E3;" d="M63.2,376.2c-1.6-0.4-3.6-0.8-5.2-0.8c-9.6,0-17.6,8-17.6,17.6s8,17.6,17.6,17.6s17.6-8,17.6-17.6
	c0-2-0.4-3.6-0.8-5.2C71.6,379.4,63.2,376.2,63.2,376.2z"/>
<g>
	<path style="fill:#61C2AB;" d="M462,383c-5.6,0-10,4.4-10,10s4.4,10,10,10c3.2,0,6.4-1.6,8.4-3.6c1.2-1.2,2.4-3.2,2-6
		C470.8,383.8,462.4,383,462,383z"/>
	<path style="fill:#61C2AB;" d="M422,383c-5.6,0-10,4.4-10,10s4.4,10,10,10c2.8,0,5.6-1.2,7.6-3.2c1.6-2,2.4-4.4,2.4-6.8
		C431.6,383.4,422.4,383,422,383z"/>
	<path style="fill:#61C2AB;" d="M382,383c-5.6,0-10,4.4-10,10s4.4,10,10,10c3.2,0,6.4-1.6,8.4-4c1.2-1.2,2-3.2,1.6-6
		C390.4,383.4,382.8,383,382,383z"/>
</g>
<path style="fill:#4BB19B;" d="M350.8,197.8c-0.8-1.2-1.2-2.4-2-3.6c-6.4-10.8-14.4-20.4-24-28.4c-1.6-1.2-2.8-2.4-4.4-3.6
	c-18.4-14-41.6-22.8-66.8-22.8s-48.4,8.4-66.8,22.8c-1.6,1.2-2.8,2.4-4.4,3.6c-9.6,8-17.6,17.6-24,28.4c-0.8,1.2-1.2,2.4-2,3.6
	c-8.4,15.6-12.8,33.2-12.8,51.6c0,19.2,5.2,37.6,14,53.2c8.8,16,21.6,29.2,36.8,39.2c17.2,11.2,37.6,17.6,59.6,17.6
	s42.4-6.4,59.6-17.6c15.2-9.6,27.6-23.2,36.4-38.8c8.8-16,14-34,14-53.2C364,231,359.2,213.4,350.8,197.8z M311.2,258.6
	c-8,8-18.4,12-29.2,12c-8,0-15.6-2.4-22.4-6.4l-10.8-10.4c-12-16.4-10.8-39.2,4-54c8-8,18.4-12,29.2-12c11.2,0,21.6,4.4,29.2,12
	c8,8,12,18.4,12,29.2C323.2,240.2,319.2,250.6,311.2,258.6z"/>
<g>
	<path style="fill:#F4EFEF;" d="M282,266.6c10,0,19.6-4,26.4-10.8c7.2-7.2,10.8-16.4,10.8-26.4s-4-19.6-10.8-26.4
		c-7.2-7.2-16.4-10.8-26.4-10.8s-19.6,4-26.4,10.8c-14.8,14.8-14.8,38.4,0,53.2C262.4,262.6,272,266.6,282,266.6z"/>
	<path style="fill:#F4EFEF;" d="M282,250.6c5.6,0,11.2-2.4,15.2-6.4c5.6-5.6,7.6-14.4,5.2-22c-2.8-8.8-12.8-13.2-12.8-13.2
		c-2.4-0.8-4.8-1.2-7.6-1.2c-5.6,0-11.2,2.4-15.2,6.4c-8.4,8.4-8.4,22,0,30.4C270.8,248.6,276,250.6,282,250.6z"/>
</g>
<path d="M473.6,169.8H330c-2.4,0-4-1.6-4-4s1.6-4,4-4h143.6c15.2,0,26.4-17.2,26.4-32.4V81.8c0-14.8-10-23.6-26.4-23.6H38
	c-14.8,0-30,8-30,23.6v47.6c0,16,15.2,32.4,30,32.4h140c2.4,0,4,1.6,4,4s-1.6,4-4,4H38c-19.2,0-38-20-38-40.4V81.8
	C0,61,19.6,50.2,38,50.2h435.2c20.8,0,34.4,12.8,34.4,31.6v47.6C508,148.6,494,169.8,473.6,169.8z"/>
<path d="M334,133.8H118c-10.4,0-18-8.4-18-20v-12.4c0-10.4,6-15.6,18-15.6h176c2.4,0,4,1.6,4,4s-1.6,4-4,4H118c-8.4,0-10,2.4-10,7.6
	v12.4c0,6,3.2,12,10,12h216.4c6.8,0,10-6,10-12v-12.4c0-5.2-1.6-7.6-10-7.6h-8c-2.4,0-4-1.6-4-4s1.6-4,4-4h8c12,0,18,5.2,18,15.6
	v12.4C352,125.4,344.4,133.8,334,133.8z"/>
<path d="M57.6,129.4c-13.2,0-23.6-10.8-23.6-23.6s10.8-23.6,23.6-23.6c2.4,0,4.8,0.4,7.2,1.2c2,0.8,3.2,2.8,2.4,5.2
	c-0.8,2-2.8,3.2-5.2,2.4c-1.6-0.4-3.2-0.8-4.8-0.8c-8.8,0-15.6,7.2-15.6,15.6s7.2,15.6,15.6,15.6c8.8,0,15.6-7.2,15.6-15.6
	c0-1.6-0.4-3.2-0.8-4.8c-0.8-2,0.4-4.4,2.8-4.8c2-0.8,4.4,0.4,4.8,2.8c0.8,2.4,1.2,4.4,1.2,6.8C81.6,118.6,70.8,129.4,57.6,129.4z"
	/>
<path d="M462,121.4c-8.8,0-16-7.2-16-16s7.2-16,16-16c2.4,0,4,1.6,4,4s-1.6,4-4,4c-4.4,0-8,3.6-8,8s3.6,8,8,8s8-3.6,8-8
	c0-2.4,1.6-4,4-4s4,1.6,4,4C478,114.2,470.8,121.4,462,121.4z"/>
<path d="M422,121.4c-8.8,0-16-7.2-16-16s7.2-16,16-16c2.4,0,4,1.6,4,4s-1.6,4-4,4c-4.4,0-8,3.6-8,8s3.6,8,8,8s8-3.6,8-8
	c0-2.4,1.6-4,4-4s4,1.6,4,4C438,114.2,430.8,121.4,422,121.4z"/>
<path d="M382,121.4c-8.8,0-16-7.2-16-16s7.2-16,16-16c2.4,0,4,1.6,4,4s-1.6,4-4,4c-4.4,0-8,3.6-8,8s3.6,8,8,8s8-3.6,8-8
	c0-2.4,1.6-4,4-4s4,1.6,4,4C398,114.2,390.8,121.4,382,121.4z"/>
<path d="M158,313.8H38c-19.2,0-38-20-38-40.8v-47.6c0-20.8,19.2-31.6,38-31.6h116c2.4,0,4,1.6,4,4s-1.6,4-4,4H38
	c-14.8,0-30,8-30,23.6V273c0,16,15.2,32.8,30,32.8h120c2.4,0,4,1.6,4,4S160.4,313.8,158,313.8z"/>
<path d="M473.6,313.8H350c-2.4,0-4-1.6-4-4s1.6-4,4-4h123.6c15.2,0,26.4-17.2,26.4-32.8v-47.6c0-14.4-10-23.6-26.4-23.6H354
	c-2.4,0-4-1.6-4-4s1.6-4,4-4h119.6c20.8,0,34.4,12.8,34.4,31.6V273C508,292.6,494,313.8,473.6,313.8z"/>
<path d="M142,277.8h-24c-10.4,0-18-8.4-18-20.4V245c0-15.2,13.6-15.2,18-15.2h24c2.4,0,4,1.6,4,4s-1.6,4-4,4h-24
	c-8.4,0-10,2.4-10,7.2v12.4c0,6,3.2,12.4,10,12.4h24c2.4,0,4,1.6,4,4S144.4,277.8,142,277.8z"/>
<path d="M57.6,273C44.4,273,34,262.2,34,249.4s10.8-23.6,23.6-23.6c2.4,0,4.8,0.4,7.2,1.2c2,0.8,3.2,2.8,2.4,5.2
	c-0.8,2-2.8,3.2-5.2,2.4c-1.6-0.4-3.2-0.8-4.8-0.8c-8.8,0-15.6,7.2-15.6,15.6c0,8.8,7.2,15.6,15.6,15.6c8.8,0,15.6-7.2,15.6-15.6
	c0-1.6-0.4-3.2-0.8-4.8c-0.8-2,0.4-4.4,2.8-4.8c2-0.8,4.4,0.4,4.8,2.8c0.8,2.4,1.2,4.4,1.2,6.8C81.6,262.6,70.8,273,57.6,273z"/>
<path d="M462,265.4c-8.8,0-16-7.2-16-16s7.2-16,16-16c2.4,0,4,1.6,4,4s-1.6,4-4,4c-4.4,0-8,3.6-8,8s3.6,8,8,8s8-3.6,8-8
	c0-2.4,1.6-4,4-4s4,1.6,4,4C478,258.2,470.8,265.4,462,265.4z"/>
<path d="M422,265.4c-8.8,0-16-7.2-16-16s7.2-16,16-16c2.4,0,4,1.6,4,4s-1.6,4-4,4c-4.4,0-8,3.6-8,8s3.6,8,8,8s8-3.6,8-8
	c0-2.4,1.6-4,4-4s4,1.6,4,4C438,258.2,430.8,265.4,422,265.4z"/>
<path d="M382,265.4c-8.8,0-16-7.2-16-16s7.2-16,16-16c2.4,0,4,1.6,4,4s-1.6,4-4,4c-4.4,0-8,3.6-8,8s3.6,8,8,8s8-3.6,8-8
	c0-2.4,1.6-4,4-4s4,1.6,4,4C398,258.2,390.8,265.4,382,265.4z"/>
<path d="M473.6,457.8H38c-19.2,0-38-20.4-38-40.8v-47.6c0-20.8,19.2-31.2,38-31.2h152c2.4,0,4,1.6,4,4s-1.6,4-4,4H38
	c-14.8,0-30,8-30,23.2V417c0,16,15.6,32.8,30,32.8h435.2c15.2,0,26.4-17.2,26.4-32.8v-47.6c0-17.2-13.6-23.2-26.4-23.2H318
	c-2.4,0-4-1.6-4-4s1.6-4,4-4h155.6c20.8,0,34.4,12.8,34.4,31.2V417C508,436.2,494,457.8,473.6,457.8z"/>
<path d="M334,421.8H118c-10.4,0-18-8.8-18-20.4V389c0-15.2,12.8-15.2,18-15.2h176c2.4,0,4,1.6,4,4s-1.6,4-4,4H118
	c-8.4,0-10,2-10,7.2v12.4c0,6,3.2,12.4,10,12.4h216.4c6.8,0,10-6.4,10-12.4V389c0-5.2-1.2-7.2-10-7.2h-8c-2.4,0-4-1.6-4-4s1.6-4,4-4
	h8c4.8,0,18,0,18,15.2v12.4C352,413,344.4,421.8,334,421.8z"/>
<path d="M57.6,417C44.4,417,34,406.2,34,393.4s10.8-23.6,23.6-23.6c2.4,0,4.8,0.4,7.2,1.2c2,0.8,3.2,2.8,2.4,5.2
	c-0.8,2-2.8,3.2-5.2,2.4c-1.6-0.4-3.2-0.8-4.8-0.8c-8.8,0-15.6,7.2-15.6,15.6c0,8.8,7.2,15.6,15.6,15.6c8.8,0,15.6-7.2,15.6-15.6
	c0-1.6-0.4-3.2-0.8-4.8c-0.8-2,0.4-4.4,2.8-5.2s4.4,0.4,4.8,2.8c0.8,2.4,1.2,4.4,1.2,6.8C81.6,406.2,70.8,417,57.6,417z"/>
<path d="M462,409c-8.8,0-16-7.2-16-16s7.2-16,16-16c2.4,0,4,1.6,4,4s-1.6,4-4,4c-4.4,0-8,3.6-8,8s3.6,8,8,8s8-3.6,8-8
	c0-2.4,1.6-4,4-4s4,1.6,4,4C478,401.8,470.8,409,462,409z"/>
<path d="M422,409c-8.8,0-16-7.2-16-16s7.2-16,16-16c2.4,0,4,1.6,4,4s-1.6,4-4,4c-4.4,0-8,3.6-8,8s3.6,8,8,8s8-3.6,8-8
	c0-2.4,1.6-4,4-4s4,1.6,4,4C438,401.8,430.8,409,422,409z"/>
<path d="M382,409c-8.8,0-16-7.2-16-16s7.2-16,16-16c2.4,0,4,1.6,4,4s-1.6,4-4,4c-4.4,0-8,3.6-8,8s3.6,8,8,8s8-3.6,8-8
	c0-2.4,1.6-4,4-4s4,1.6,4,4C398,401.8,390.8,409,382,409z"/>
<path d="M254,365.4c-64,0-116-52-116-116s52-116,116-116s116,52,116,116S318,365.4,254,365.4z M254,141.8c-59.6,0-108,48.4-108,108
	s48.4,108,108,108s108-48.4,108-108S313.6,141.8,254,141.8z"/>
<path d="M282,272.6c-24,0-43.6-19.6-43.6-43.6s19.6-43.6,43.6-43.6s43.6,19.6,43.6,43.6S306,272.6,282,272.6z M282,193.8
	c-19.6,0-35.6,16-35.6,35.6s16,35.6,35.6,35.6s35.6-16,35.6-35.6S301.6,193.8,282,193.8z"/>
<path d="M303.6,233.8c-2.4,0-4-1.6-4-4c0-5.2-2-10-5.6-14c-3.6-3.6-8.8-5.6-14-5.6l0,0c-2.4,0-4-1.6-4-4s2-4,4-4
	c7.2,0,14.4,2.8,19.6,8c5.2,5.2,8,12,8,19.6C307.6,232.2,306,233.8,303.6,233.8z"/>
<path d="M208.8,308.6c-0.8,0-2-0.4-2.8-1.2c-1.6-1.6-1.6-4,0-5.6l45.2-47.6c1.6-1.6,4-1.6,5.6,0s1.6,4,0,5.6l-45.2,47.6
	C210.8,308.2,209.6,308.6,208.8,308.6z"/>
<g>
</g>
<g>
</g>
<g>
</g>
<g>
</g>
<g>
</g>
<g>
</g>
<g>
</g>
<g>
</g>
<g>
</g>
<g>
</g>
<g>
</g>
<g>
</g>
<g>
</g>
<g>
</g>
<g>
</g>
</svg>
