<?xml version="1.0" encoding="iso-8859-1"?>
<!-- Generator: Adobe Illustrator 19.0.0, SVG Export Plug-In . SVG Version: 6.00 Build 0)  -->
<svg version="1.1" id="Layer_1" xmlns="http://www.w3.org/2000/svg" xmlns:xlink="http://www.w3.org/1999/xlink" x="0px" y="0px"
	 viewBox="0 0 508 508" style="enable-background:new 0 0 508 508;" xml:space="preserve">
<path style="fill:#F4EFEF;" d="M250.8,143.8h6c6.8,0,12,4.4,12.4,10.4l0.8,9.6h203.2c17.2,0,28.4-18.8,28.4-34V82.2
	c0-16.4-12-26-28.4-26H38c-15.6,0-32,8.8-32,26v47.6c0,16.4,15.6,34,32,34h199.6l0.8-9.6C238.8,148.2,244.4,143.8,250.8,143.8z"/>
<path style="fill:#CDEEF9;" d="M334,91.8h-8H118c-7.6,0-16,2-16,9.6v8.4c0,7.6,8,18,16,18h216.4c7.6,0,12-10,12-18v-8.4
	C346,93.8,342,91.8,334,91.8z"/>
<path style="fill:#E8E3E3;" d="M63.2,89c-2-0.4-3.6-0.8-5.6-0.8c-9.6,0-17.6,8-17.6,17.6s8,17.6,17.6,17.6s17.6-8,17.6-17.6
	c0-1.6-0.4-3.2-0.8-5.2C72,91.4,63.2,89,63.2,89z"/>
<g>
	<path style="fill:#61C2AB;" d="M462,115.8c5.6,0,10-4.4,10-10c0-8-10-10-10.4-10c-5.2,0-9.6,4.4-9.6,10S456.4,115.8,462,115.8z"/>
	<path style="fill:#61C2AB;" d="M422,115.8c3.2,0,6.8-1.6,8.8-4c0.8-1.2,2-3.2,1.6-5.6c-2-9.2-6.4-10.8-8.8-10.8c-0.4,0-0.8,0-0.8,0
		h-0.4c-5.6,0-10,4.4-10,10C412,111.4,416.4,115.8,422,115.8z"/>
	<path style="fill:#61C2AB;" d="M382,115.8c3.2,0,6.4-1.6,8.4-3.6c1.2-1.2,2.4-3.2,2-6c-1.6-10-8.8-10.4-10-10.4
		c-5.6,0-10.4,4.4-10.4,10S376.4,115.8,382,115.8z"/>
</g>
<g>
	<path style="fill:#F4EFEF;" d="M167.2,275.8H118c-10,0-20-12-20-22v-8.4c0-10,10.4-13.6,20-13.6h49.2c2-12,6-19.6,11.2-28
		c0.8-1.2,1.6-2,2.4-3.2c0,0-2-0.8-2.4-0.8h-140c-15.6,0-32,8.8-32,26v47.6c0,16.8,15.6,34.4,32,34.4h137.2l2.8-4.4l2-2.8
		c-0.8-0.8-1.2-1.2-2-2C173.2,291.4,169.6,283.8,167.2,275.8z"/>
	<path style="fill:#F4EFEF;" d="M473.6,199.8H328.8l-1.2,0.4c6.8,10,11.6,20.8,14,33.6l10,0.8c6,0.4,10.4,5.6,10.4,12v6
		c0,6.8-4.4,12-10.4,12.4l-9.6,0.8c-2,11.2-6.4,22-12.4,31.6c-0.4,0.8-1.2,1.6-1.6,2.4l2,3.2l2.8,4.4h140.8
		c17.2,0,28.4-18.8,28.4-34.4v-47.6C502,209.4,490,199.8,473.6,199.8z"/>
</g>
<path style="fill:#CDEEF9;" d="M154.4,265c-6-0.4-12.4-5.6-12.4-12.4v-6c0-6,6-10.8,12.4-11.6l3.2,0.8H118c-7.6,0-16,2-16,9.6v8.4
	c0,7.6,8,18,16,18h48.4c-0.4-4-0.4-3.6-0.8-4.8L154.4,265z"/>
<path style="fill:#E8E3E3;" d="M63.6,232.6c-2-0.8-4-0.8-6-0.8c-9.6,0-17.6,8-17.6,17.6S48,267,57.6,267s17.6-8,17.6-17.6
	c0-1.6-0.4-3.2-0.8-5.2C71.6,233.8,64,233,63.6,232.6z"/>
<g>
	<path style="fill:#61C2AB;" d="M462,259.8c3.2,0,6-1.6,8-3.6c1.2-1.2,2.4-3.2,2-6c-1.2-9.2-7.2-10.4-9.6-10.4H462
		c-5.6,0-10,4.4-10,10S456.4,259.8,462,259.8z"/>
	<path style="fill:#61C2AB;" d="M422,259.8c3.2,0,6.8-1.6,8.8-4c0.8-1.2,2-3.2,1.6-5.6c-2.4-10-8.8-10.4-10-10.4
		c-5.6,0-10.4,4.4-10.4,10C412,255.4,416.4,259.8,422,259.8z"/>
	<path style="fill:#61C2AB;" d="M382,259.8c2.8,0,5.6-1.2,7.6-3.2c1.6-2,2.8-4.4,2.4-6.8c-0.8-9.2-6.8-10.4-9.6-10.4H382
		c-5.6,0-10.4,4.4-10.4,10C372,255.4,376.4,259.8,382,259.8z"/>
</g>
<path style="fill:#F4EFEF;" d="M473.6,343.8H270l-0.4,7.6c-0.4,6-5.6,12.4-12.4,12.4h-6c-6.8,0-12-6.8-12.4-12.4l-0.4-7.6H38
	c-15.6,0-32,8.4-32,25.6V417c0,16.8,15.6,34.4,32,34.4h435.2c17.2,0,28.4-18.8,28.4-34.4v-47.6C502,353,490.4,343.8,473.6,343.8z"/>
<path style="fill:#CDEEF9;" d="M102,389.4v8.4c0,7.6,8.4,18.4,16,18.4h216.4c7.6,0,12-10.4,12-18.4v-8.4c0-7.6-4-9.6-12-9.6h-8h-208
	C110,379.8,102,381.8,102,389.4z"/>
<path style="fill:#E8E3E3;" d="M74.8,387.8C74,377,64.4,376.6,64,376.6h-0.4c-1.6-0.4-3.6-0.8-5.6-0.8c-9.6,0-17.6,8-17.6,17.6
	S48.4,411,58,411s17.6-8,17.6-17.6c0-0.8-0.4-2-0.4-2.8C74.8,389.4,74.8,388.6,74.8,387.8z"/>
<g>
	<path style="fill:#61C2AB;" d="M462,383.4c-5.6,0-10,4.4-10,10s4.4,10,10,10c2.8,0,5.6-1.2,7.6-3.2c1.6-2,2.8-4.4,2.4-6.8
		C471.6,383.4,462.4,383.4,462,383.4z"/>
	<path style="fill:#61C2AB;" d="M422,383.4c-5.6,0-10,4.4-10,10s4.4,10,10,10c2.8,0,5.6-1.2,7.2-3.2c2-2,2.8-4.4,2.8-6.8
		C432,383.8,422.8,383.4,422,383.4z"/>
</g>
<path style="fill:#AEB1B4;" d="M351.2,238.2l-11.6-1.2c-0.8,0-1.6-0.8-1.6-1.6c-2-11.2-5.6-21.6-11.6-30.8c-0.8-1.6-2-3.2-3.2-4.4
	c-0.4-0.8-0.4-1.6,0-2.4l0.8-1.2l2.4-2.8l4.8-5.6c2.8-3.2,2.4-8.4-0.4-11.6l-4.4-4.4c-2.8-2.8-8.4-3.2-11.6-0.4l-9.6,8
	c-0.8,0.4-1.6,0.8-2.4,0c-10.4-7.2-22-12-34.4-14.4c-0.4,0-0.4,0-0.8,0c-0.8,0-1.6-0.8-1.6-1.6l-1.2-10.4c-0.4-4.8-4.8-5.6-8.4-5.6
	h-6c-4,0-8,1.2-8.4,5.6l-1.2,11.6c0,0.4-0.4,0.8-0.8,1.2c-0.4,0-0.4,0.4-0.8,0.4c-13.2,2-24.8,6.8-35.2,14c-0.8,0.4-1.6,0.4-2.4,0
	l-9.6-8.4c-3.2-2.8-8.8-2.4-11.6,0.4L176,177c-3.2,3.2-3.2,8-0.4,11.6l8,9.6c0.4,0.8,0.8,1.6,0,2.4c-2.4,3.6-4.8,7.2-6.4,10.8
	c-3.2,6-5.6,12.4-7.2,19.2c-0.4,1.2-0.4,2.4-0.8,3.6c0,0.4,0,0.4,0,0.8s0,0.4,0,0.8c0,0.8-0.8,1.6-2,1.6l-13.2,1.2
	c-4.4,0.4-8.8,4.4-8.8,8.4v6c0,4.4,4.8,8,8.8,8.4l12.4,0.8c0.8,0,1.6,0.8,2,1.6c0.4,1.2,0.4,2.8,0.8,4c0,0.8,0.4,1.2,0.4,2
	c0.4,1.2,0.4,2.4,0.8,3.2c1.6,5.6,4,10.8,6.8,16c1.6,3.2,3.6,6.8,6,10c0.4,0.8,0.4,1.6,0,2.4l-4.4,5.2l-1.6,2l-0.8,1.2l-0.8,1.2
	c-2.8,3.2-2.4,8.4,0.4,11.6l4.4,4.4c2.8,2.8,8.4,3.2,11.6,0.4l9.2-7.6c0.4-0.4,0.8-0.4,1.2-0.4s0.8,0,1.2,0.4
	c10.4,7.6,22.8,12.8,35.6,14.8c0.8,0,1.6,0.8,1.6,2l0.4,6l0.4,8c0.4,4,4,10,8.4,10h6c4.4,0,8-5.6,8.4-10l0.4-7.6l0.4-5.6
	c0-0.8,0.8-1.6,1.6-2c12.4-2,24.8-7.2,35.6-15.2c0.8-0.4,1.6-0.4,2.4,0l9.2,7.6c3.2,2.8,8.4,2.4,11.6-0.4l4.4-4.4
	c3.2-3.2,3.2-8.4,0.4-11.6l-0.8-1.2l-0.8-0.8l-1.6-2l-4.4-5.2c-0.4-0.8-0.8-1.6,0-2.4c2-2.8,4-6,5.6-8.8c4.4-8.4,7.6-17.2,9.2-26.4
	c0-0.8,0.8-1.6,1.6-1.6l11.2-0.8c4.4-0.4,6.8-4.4,6.8-8.4v-6C358,242.6,355.6,238.2,351.2,238.2z"/>
<path style="fill:#61C2AB;" d="M382,383.4c-5.6,0-10,4.4-10,10s4.4,10,10,10s10-4.4,10-10.4C392.4,384.2,382.4,383.4,382,383.4z"/>
<path style="fill:#F4EFEF;" d="M305.2,261.4c3.2-13.6,0.8-27.6-6.8-39.2c-6.4-13.2-20.8-18.8-20.8-18.8c-1.2-0.8-2.4-1.2-3.6-1.6
	c-6.4-2.4-12.8-4-19.6-4c-10,0-19.6,2.8-28,8c-11.6,7.6-20,19.2-22.8,32.8c-3.2,13.6-0.8,27.6,6.8,39.2c9.6,15.2,26,24.4,44,24.4
	c10,0,19.6-2.8,28-8C294,286.6,302,275,305.2,261.4z"/>
<path d="M473.6,169.8H278c-2.4,0-4-1.6-4-4s1.6-4,4-4h195.6c15.2,0,26.4-16.8,26.4-32V82.2c0-14.8-10.4-24-26.4-24H38
	c-14.8,0-30,8.4-30,24v47.6c0,16,15.2,32,30,32h196c2.4,0,4,1.6,4,4s-1.6,4-4,4H38c-19.2,0-38-20-38-40V82.2c0-20.8,19.6-32,38-32
	h435.2c20.8,0,34.4,12.8,34.4,32v47.6C508,148.6,494,169.8,473.6,169.8z"/>
<path d="M334,133.8H118c-10.4,0-18-8-18-20v-12.4c0-10.4,6-15.6,18-15.6h176c2.4,0,4,1.6,4,4s-1.6,4-4,4H118c-8.4,0-10,2.8-10,7.6
	v12.4c0,5.6,2.4,12,10,12h216.4c7.2,0,10-6.4,10-12v-12.4c0-5.2-1.6-7.6-10-7.6h-8c-2.4,0-4-1.6-4-4s1.6-4,4-4h8
	c12,0,18,5.2,18,15.6v12.4C352,125.8,344.8,133.8,334,133.8z"/>
<path d="M57.6,129.4c-13.2,0-23.6-10.8-23.6-23.6c0-13.2,10.8-23.6,23.6-23.6c2.4,0,4.8,0.4,7.2,1.2c2,0.8,3.2,2.8,2.4,5.2
	c-0.8,2-2.8,3.2-5.2,2.4c-1.6-0.4-3.2-0.8-4.8-0.8c-8.8,0-15.6,7.2-15.6,15.6c0,8.8,7.2,15.6,15.6,15.6c8.8,0,15.6-7.2,15.6-15.6
	c0-1.6-0.4-3.2-0.8-4.8c-0.8-2,0.4-4.4,2.8-4.8c2-0.8,4.4,0.4,4.8,2.8c0.8,2.4,1.2,4.4,1.2,6.8C81.6,119,70.8,129.4,57.6,129.4z"/>
<path d="M462,121.8c-8.8,0-16-7.2-16-16s7.2-16,16-16c2.4,0,4,1.6,4,4s-1.6,4-4,4c-4.4,0-8,3.6-8,8s3.6,8,8,8s8-3.6,8-8
	c0-2.4,1.6-4,4-4s4,1.6,4,4C478,114.6,470.8,121.8,462,121.8z"/>
<path d="M422,121.8c-8.8,0-16-7.2-16-16s7.2-16,16-16c2.4,0,4,1.6,4,4s-1.6,4-4,4c-4.4,0-8,3.6-8,8s3.6,8,8,8s8-3.6,8-8
	c0-2.4,1.6-4,4-4s4,1.6,4,4C438,114.6,430.8,121.8,422,121.8z"/>
<path d="M382,121.8c-8.8,0-16-7.2-16-16s7.2-16,16-16c2.4,0,4,1.6,4,4s-1.6,4-4,4c-4.4,0-8,3.6-8,8s3.6,8,8,8s8-3.6,8-8
	c0-2.4,1.6-4,4-4s4,1.6,4,4C398,114.6,390.8,121.8,382,121.8z"/>
<path d="M174,313.8H38c-19.2,0-38-20-38-40.4v-47.6c0-20.8,19.6-32,38-32h136c2.4,0,4,1.6,4,4s-1.6,4-4,4H38c-14.8,0-30,8.4-30,24
	v47.6c0,16,15.2,32.4,30,32.4h136c2.4,0,4,1.6,4,4S176.4,313.8,174,313.8z"/>
<path d="M473.6,313.8H334c-2.4,0-4-1.6-4-4s1.6-4,4-4h139.6c15.2,0,26.4-17.2,26.4-32.4v-47.6c0-14.4-10.4-24-26.4-24H334
	c-2.4,0-4-1.6-4-4s1.6-4,4-4h139.6c20.8,0,34.4,12.8,34.4,32v47.6C508,292.6,494,313.8,473.6,313.8z"/>
<path d="M166,277.8h-48c-10.4,0-18-8.4-18-20v-12.4c0-10.4,6-15.6,18-15.6h48c2.4,0,4,1.6,4,4s-1.6,4-4,4h-48c-8.4,0-10,2.4-10,7.6
	v12.4c0,5.6,2.4,12,10,12h48c2.4,0,4,1.6,4,4S168.4,277.8,166,277.8z"/>
<path d="M57.6,273.4c-13.2,0-23.6-10.8-23.6-23.6s10.8-23.6,23.6-23.6c2.4,0,4.8,0.4,7.2,1.2c2,0.8,3.2,2.8,2.4,5.2
	c-0.8,2-2.8,3.2-5.2,2.4c-1.6-0.4-3.2-0.8-4.8-0.8c-8.8,0-15.6,7.2-15.6,15.6c0,8.8,7.2,15.6,15.6,15.6c8.8,0,15.6-7.2,15.6-15.6
	c0-1.6-0.4-3.2-0.8-4.8c-0.8-2,0.4-4.4,2.8-4.8c2-0.8,4.4,0.4,4.8,2.8c0.8,2.4,1.2,4.4,1.2,6.8C81.6,262.6,70.8,273.4,57.6,273.4z"
	/>
<path d="M462,265.8c-8.8,0-16-7.2-16-16s7.2-16,16-16c2.4,0,4,1.6,4,4s-1.6,4-4,4c-4.4,0-8,3.6-8,8s3.6,8,8,8s8-3.6,8-8
	c0-2.4,1.6-4,4-4s4,1.6,4,4C478,258.6,470.8,265.8,462,265.8z"/>
<path d="M422,265.8c-8.8,0-16-7.2-16-16s7.2-16,16-16c2.4,0,4,1.6,4,4s-1.6,4-4,4c-4.4,0-8,3.6-8,8s3.6,8,8,8s8-3.6,8-8
	c0-2.4,1.6-4,4-4s4,1.6,4,4C438,258.6,430.8,265.8,422,265.8z"/>
<path d="M382,265.8c-8.8,0-16-7.2-16-16s7.2-16,16-16c2.4,0,4,1.6,4,4s-1.6,4-4,4c-4.4,0-8,3.6-8,8s3.6,8,8,8s8-3.6,8-8
	c0-2.4,1.6-4,4-4s4,1.6,4,4C398,258.6,390.8,265.8,382,265.8z"/>
<path d="M473.6,457.8H38c-19.2,0-38-20-38-40.4v-47.6c0-20.8,19.2-31.6,38-31.6h200c2.4,0,4,1.6,4,4s-1.6,4-4,4H38
	c-14.8,0-30,8-30,23.6v47.6c0,16,15.2,32.4,30,32.4h435.2c15.2,0,26.4-17.2,26.4-32.4v-47.6c0-14.8-10-23.6-26.4-23.6H270
	c-2.4,0-4-1.6-4-4s1.6-4,4-4h203.6c20.8,0,34.4,12.8,34.4,31.6v47.6C508,436.6,494,457.8,473.6,457.8z"/>
<path d="M334,421.8H118c-10.4,0-18-8.4-18-20.4V389c0-15.2,13.6-15.2,18-15.2h176c2.4,0,4,1.6,4,4s-1.6,4-4,4H118
	c-8.4,0-10,2.4-10,7.2v12.4c0,6,3.2,12.4,10,12.4h216.4c6.8,0,10-6,10-12.4V389c0-5.2-1.6-7.2-10-7.2h-8c-2.4,0-4-1.6-4-4s1.6-4,4-4
	h8c4.4,0,18,0,18,15.2v12.4C352,413.4,344.4,421.8,334,421.8z"/>
<path d="M57.6,417C44.4,417,34,406.2,34,393.4s10.8-23.6,23.6-23.6c2.4,0,4.8,0.4,7.2,1.2c2,0.8,3.2,2.8,2.4,5.2
	c-0.8,2-2.8,3.2-5.2,2.4c-1.6-0.4-3.2-0.8-4.8-0.8c-8.8,0-15.6,7.2-15.6,15.6S48.8,409,57.2,409c8.8,0,15.6-7.2,15.6-15.6
	c0-1.6-0.4-3.2-0.8-4.8c-0.8-2,0.4-4.4,2.8-5.2c2-0.8,4.4,0.4,4.8,2.8c0.8,2.4,1.2,4.4,1.2,6.8C81.6,406.6,70.8,417,57.6,417z"/>
<path d="M462,409.4c-8.8,0-16-7.2-16-16s7.2-16,16-16c2.4,0,4,1.6,4,4s-1.6,4-4,4c-4.4,0-8,3.6-8,8s3.6,8,8,8s8-3.6,8-8
	c0-2.4,1.6-4,4-4s4,1.6,4,4C478,402.2,470.8,409.4,462,409.4z"/>
<path d="M422,409.4c-8.8,0-16-7.2-16-16s7.2-16,16-16c2.4,0,4,1.6,4,4s-1.6,4-4,4c-4.4,0-8,3.6-8,8s3.6,8,8,8s8-3.6,8-8
	c0-2.4,1.6-4,4-4s4,1.6,4,4C438,402.2,430.8,409.4,422,409.4z"/>
<path d="M382,409.4c-8.8,0-16-7.2-16-16s7.2-16,16-16c2.4,0,4,1.6,4,4s-1.6,4-4,4c-4.4,0-8,3.6-8,8s3.6,8,8,8s8-3.6,8-8
	c0-2.4,1.6-4,4-4s4,1.6,4,4C398,402.2,390.8,409.4,382,409.4z"/>
<path d="M254,308.2c-19.2,0-38-9.6-49.2-27.2c-8.4-13.2-11.2-28.8-7.6-44s12.4-28,25.6-36.4c16-10,35.6-12,53.2-4.8
	c1.2,0.4,2.4,1.2,3.6,1.6c2,0.8,2.8,3.2,2,5.2s-3.2,2.8-5.2,2c-1.2-0.4-2-0.8-3.2-1.6c-15.2-6-32-4.4-46,4
	c-11.2,7.2-19.2,18.4-22,31.6s-0.4,26.4,6.4,38c14.8,23.2,46,30.4,69.2,15.6s30.4-46,15.6-69.2c-1.2-2-0.8-4.4,1.2-5.6
	s4.4-0.8,5.6,1.2c17.2,27.2,9.2,63.2-18,80.4C275.6,305,264.8,308.2,254,308.2z"/>
<path d="M257.2,365.8h-6c-7.6,0-14-8-14.4-15.6l-0.8-10.8c-11.6-2.4-22.4-6.8-32.4-13.6l-6.8,5.6c-5.6,4.8-14.4,4.4-19.6-0.8
	l-4.4-4.4c-5.2-5.2-5.6-14-0.8-19.6l5.6-6.8c-6.8-10-11.2-21.2-13.6-32.4l-9.6-0.8c-6.8-0.4-14.4-6.4-14.4-14.4v-6
	c0-8,7.2-14,14.4-14.4l10-0.8c2.4-11.2,6.8-22.4,13.2-32l-6-7.2c-4.8-5.6-4.4-14.4,0.8-19.6l4.4-4.4c5.2-5.2,14-5.6,19.6-0.8
	l7.2,6.4c9.2-6,20-10.4,32-12.8l0.8-8.4c0.4-6.8,6.4-11.2,14.4-11.2h6c8.4,0,14,4.4,14.4,11.2l0.8,7.2c11.6,2.4,22,6.8,32,13.2
	l7.2-6c5.6-4.8,14.4-4.4,19.6,0.8l4.4,4.4c5.2,5.2,5.6,14,0.8,19.6l-6,7.2c6.4,9.6,10.8,20.4,13.2,32l8.8,0.8
	c7.2,0.4,12.4,6.8,12.4,14.4v6c0,7.6-5.2,14-12.4,14.4l-8,0.8c-2.4,11.6-6.8,22.4-13.2,32.4l5.6,6.8c4.8,5.6,4.4,14.4-0.8,19.6
	l-4.4,4.4c-5.2,5.2-14,5.6-19.6,0.8l-6.8-5.6c-10.4,7.2-21.2,11.6-32.4,14l-0.8,9.6C270.8,357.8,264.8,365.8,257.2,365.8z
	 M203.2,317c0.8,0,1.6,0.4,2.4,0.8c10.4,7.2,22.4,12.4,34.8,14.4c2,0.4,3.2,2,3.2,3.6l0.8,14c0.4,3.6,3.6,8,6.4,8h6
	c2.8,0,6-4.4,6.4-8L264,337c0-2,1.6-3.2,3.2-3.6c12-2,23.6-7.2,34.8-15.2c1.6-1.2,3.6-0.8,4.8,0l9.2,7.6c2.4,2,6.4,2,8.8-0.4
	l4.4-4.4c2.4-2.4,2.4-6.4,0.4-8.8L322,303c-1.2-1.2-1.2-3.6-0.4-4.8c7.2-10.4,12.4-22.4,14.4-34.8c0.4-2,1.6-3.2,3.6-3.2l11.2-0.8
	c3.6-0.4,4.8-3.6,4.8-6.4v-6c0-2.8-1.6-6-4.8-6.4l0,0l-11.6-1.2c-2,0-3.2-1.6-3.6-3.2c-2-12.8-6.8-24.4-14-34.4
	c-1.2-1.6-0.8-3.6,0.4-4.8l8-9.6c2-2.4,2-6.4-0.4-8.8l-4.4-4.4c-2.4-2.4-6.4-2.4-8.8-0.4l-9.6,8c-1.2,1.2-3.6,1.2-4.8,0.4
	c-10.4-7.2-22-12-34.4-14c-1.6-0.4-3.2-1.6-3.2-3.6l-1.2-10.4c-0.4-3.6-4-4-6.4-4h-6c-2.4,0-6,0.4-6.4,4l-1.2,11.6
	c0,2-1.6,3.2-3.2,3.6c-13.2,2-24.4,6.8-34.4,13.6c-1.6,1.2-3.6,0.8-4.8-0.4l-9.6-8.4c-2.4-2-6.4-2-8.8,0.4L178,179
	c-2.4,2.4-2.4,6.4-0.4,8.8l8,9.6c1.2,1.2,1.2,3.6,0.4,4.8c-7.2,10.4-12.4,22-14.4,34.4c-0.4,2-2,3.2-3.6,3.2l-13.2,1.2
	c-3.6,0.4-6.8,3.6-6.8,6.4v6c0,2.8,3.6,6,6.8,6.4l12.4,0.8c2,0,3.2,1.6,3.6,3.2c2,12,6.8,24,14.4,34.8c1.2,1.6,0.8,3.6,0,4.8
	l-7.6,9.2c-2,2.4-2,6.4,0.4,8.8l4.4,4.4c2.4,2.4,6.4,2.4,8.8,0.4l9.2-7.6C201.2,317.4,202,317,203.2,317z"/>
<g>
</g>
<g>
</g>
<g>
</g>
<g>
</g>
<g>
</g>
<g>
</g>
<g>
</g>
<g>
</g>
<g>
</g>
<g>
</g>
<g>
</g>
<g>
</g>
<g>
</g>
<g>
</g>
<g>
</g>
</svg>
