<?xml version="1.0" encoding="iso-8859-1"?>
<!-- Generator: Adobe Illustrator 19.0.0, SVG Export Plug-In . SVG Version: 6.00 Build 0)  -->
<svg version="1.1" id="Layer_1" xmlns="http://www.w3.org/2000/svg" xmlns:xlink="http://www.w3.org/1999/xlink" x="0px" y="0px"
	 viewBox="0 0 512 512" style="enable-background:new 0 0 512 512;" xml:space="preserve">
<g>
	<path style="fill:#8AD5DD;" d="M159.92,201.832v110.952l96.08,55.48l96.088-55.48V201.832L256,146.352L159.92,201.832z
		 M281.752,256.032c0,14.224-11.528,25.752-25.752,25.752s-25.752-11.528-25.752-25.752c0-14.224,11.528-25.752,25.752-25.752
		C270.224,230.28,281.752,241.808,281.752,256.032z"/>
	<path style="fill:#8AD5DD;" d="M427.816,142.808c0-4.56,1.288-8.776,3.36-12.488L276.592,41.072
		c-4.696,6.296-12.136,10.432-20.592,10.432s-15.896-4.136-20.592-10.432L80.824,130.32c2.08,3.712,3.36,7.936,3.36,12.488
		c0,14.224-11.528,25.752-25.752,25.752v175.688c14.224,0,25.752,11.528,25.752,25.752c0,5.12-1.536,9.856-4.112,13.864
		L234.12,472.8c4.536-7.36,12.592-12.312,21.872-12.312c9.28,0,17.344,4.952,21.872,12.312l154.056-88.928
		c-2.576-4.008-4.112-8.752-4.112-13.864c0-14.224,11.528-25.752,25.752-25.752V168.56
		C439.344,168.56,427.816,157.032,427.816,142.808z M368.088,322.016L256,386.728l-112.08-64.712V192.6L256,127.888L368.088,192.6
		V322.016z"/>
</g>
<path style="fill:#FFFFFF;" d="M143.92,192.6v129.424L256,386.728l112.088-64.712V192.6L256,127.888L143.92,192.6z M352.088,312.784
	L256,368.264l-96.08-55.48V201.832l96.08-55.48l96.088,55.48V312.784z"/>
<g>
	<path style="fill:#DB2B42;" d="M427.816,370c0,5.12,1.536,9.856,4.112,13.864c4.576,7.136,12.536,11.888,21.64,11.888
		c14.224,0,25.752-11.528,25.752-25.752s-11.528-25.752-25.752-25.752S427.816,355.784,427.816,370z"/>
	<path style="fill:#DB2B42;" d="M84.184,142.808c0-4.56-1.288-8.776-3.36-12.488c-4.408-7.872-12.728-13.264-22.392-13.264
		c-14.224,0-25.752,11.528-25.752,25.752s11.528,25.752,25.752,25.752S84.184,157.032,84.184,142.808z"/>
	<path style="fill:#DB2B42;" d="M453.568,168.56c14.224,0,25.752-11.528,25.752-25.752s-11.528-25.752-25.752-25.752
		c-9.664,0-17.984,5.384-22.392,13.264c-2.08,3.712-3.36,7.936-3.36,12.488C427.816,157.032,439.344,168.56,453.568,168.56z"/>
	<path style="fill:#DB2B42;" d="M58.432,344.248c-14.224,0-25.752,11.528-25.752,25.752s11.528,25.752,25.752,25.752
		c9.104,0,17.064-4.752,21.64-11.888c2.576-4.008,4.112-8.752,4.112-13.864C84.184,355.784,72.656,344.248,58.432,344.248z"/>
	<circle style="fill:#DB2B42;" cx="256" cy="256" r="25.752"/>
	<path style="fill:#DB2B42;" d="M256,51.504c8.456,0,15.896-4.136,20.592-10.432c3.2-4.288,5.16-9.56,5.16-15.32
		C281.752,11.528,270.224,0,256,0s-25.752,11.528-25.752,25.752c0,5.76,1.96,11.032,5.16,15.32
		C240.104,47.368,247.544,51.504,256,51.504z"/>
	<path style="fill:#DB2B42;" d="M256,460.496c-9.28,0-17.344,4.952-21.872,12.312c-2.416,3.92-3.88,8.496-3.88,13.44
		C230.248,500.472,241.776,512,256,512s25.752-11.528,25.752-25.752c0-4.944-1.464-9.52-3.88-13.44
		C273.344,465.448,265.28,460.496,256,460.496z"/>
</g>
<g>
</g>
<g>
</g>
<g>
</g>
<g>
</g>
<g>
</g>
<g>
</g>
<g>
</g>
<g>
</g>
<g>
</g>
<g>
</g>
<g>
</g>
<g>
</g>
<g>
</g>
<g>
</g>
<g>
</g>
</svg>
